HIERARCHY
ROOT Hips
{
	OFFSET 0.000000 0.000000 0.000000
	CHANNELS 6 Xposition Yposition Zposition Zrotation Yrotation Xrotation 
	JOINT LHipJoint
	{
		OFFSET 0.069520 -0.091406 -0.006815
		CHANNELS 3 Zrotation Yrotation Xrotation
		JOINT LeftLeg
		{
			OFFSET 0.034277 -0.375199 -0.004496
			CHANNELS 3 Zrotation Yrotation Xrotation
			JOINT LeftFoot
			{
				OFFSET -0.013596 -0.397961 -0.043693
				CHANNELS 3 Zrotation Yrotation Xrotation
				JOINT LeftToeBase
				{
					OFFSET 0.026358 -0.055791 0.119288
					CHANNELS 3 Zrotation Yrotation Xrotation
					End Site
					{
						OFFSET 0.000000 0.000000 0.000000
					}
				}
			}
		}
	}
	JOINT RHipJoint
	{
		OFFSET -0.067670 -0.090522 -0.004320
		CHANNELS 3 Zrotation Yrotation Xrotation
		JOINT RightLeg
		{
			OFFSET -0.038290 -0.382569 -0.008850
			CHANNELS 3 Zrotation Yrotation Xrotation
			JOINT RightFoot
			{
				OFFSET 0.015774 -0.398415 -0.042312
				CHANNELS 3 Zrotation Yrotation Xrotation
				JOINT RightToeBase
				{
					OFFSET -0.025372 -0.048144 0.123348
					CHANNELS 3 Zrotation Yrotation Xrotation
					End Site
					{
						OFFSET 0.000000 0.000000 0.000000
					}
				}
			}
		}
	}
	JOINT LowerBack
	{
		OFFSET -0.002533 0.108963 -0.026696
		CHANNELS 3 Zrotation Yrotation Xrotation
		JOINT Spine1
		{
			OFFSET 0.005487 0.135180 0.001092
			CHANNELS 3 Zrotation Yrotation Xrotation
			JOINT Spine2
			{
				OFFSET 0.001457 0.052922 0.025425
				CHANNELS 3 Zrotation Yrotation Xrotation
				JOINT Neck
				{
					OFFSET -0.002778 0.213870 -0.042857
					CHANNELS 3 Zrotation Yrotation Xrotation
					JOINT Neck1
					{
						OFFSET 0.005152 0.064970 0.051349
						CHANNELS 3 Zrotation Yrotation Xrotation
						End Site
						{
							OFFSET 0.000000 0.000000 0.000000
						}
					}
				}
				JOINT LeftShoulder
				{
					OFFSET 0.078845 0.121749 -0.034090
					CHANNELS 3 Zrotation Yrotation Xrotation
					JOINT LeftArm
					{
						OFFSET 0.090977 0.030469 -0.008868
						CHANNELS 3 Zrotation Yrotation Xrotation
						JOINT LeftForeArm
						{
							OFFSET 0.259612 -0.012772 -0.027456
							CHANNELS 3 Zrotation Yrotation Xrotation
							JOINT LeftHand
							{
								OFFSET 0.249234 0.008986 -0.001171
								CHANNELS 3 Zrotation Yrotation Xrotation
								End Site
								{
									OFFSET 0.000000 0.000000 0.000000
								}
							}
						}
					}
				}
				JOINT RightShoulder
				{
					OFFSET -0.081759 0.118833 -0.038615
					CHANNELS 3 Zrotation Yrotation Xrotation
					JOINT RightArm
					{
						OFFSET -0.096012 0.032551 -0.009143
						CHANNELS 3 Zrotation Yrotation Xrotation
						JOINT RightForeArm
						{
							OFFSET -0.253742 -0.013329 -0.021401
							CHANNELS 3 Zrotation Yrotation Xrotation
							JOINT RightHand
							{
								OFFSET -0.255298 0.007772 -0.005559
								CHANNELS 3 Zrotation Yrotation Xrotation
								End Site
								{
									OFFSET 0.000000 0.000000 0.000000
								}
							}
						}
					}
				}
			}
		}
	}
}
MOTION
Frames: 16
Frame Time: 0.050000
-0.039255 0.997203 -0.000230 -4.881394 5.449610 -0.362137 -3.115505 2.031300 19.216171 7.008717 -2.085504 12.745046 -3.693326 0.042593 13.842935 0.000000 0.000000 0.000000 3.821294 3.650995 -30.435835 5.700278 -1.952863 37.070104 -10.198431 -22.841470 14.289601 0.000000 0.000000 0.000000 2.128367 -0.208091 3.130326 4.309131 -2.278219 1.987903 -0.588481 -16.594376 6.097173 -5.045774 3.002287 -11.830101 0.000000 0.000000 0.000000 -14.352933 0.313934 1.077425 -37.256535 -13.321579 -1.666397 -132.328396 -69.994959 129.888456 0.000000 0.000000 0.000000 5.797144 -4.691466 -3.270551 30.714866 -19.761160 -7.272870 81.443810 39.402406 28.634150 0.000000 0.000000 0.000000 
-0.037350 1.009272 0.004747 -3.894854 6.757047 0.819964 -2.083943 1.529973 16.042639 4.069567 -3.074998 28.229006 -2.086749 2.353626 13.151340 0.000000 0.000000 0.000000 6.162422 3.577032 -25.995123 0.324731 0.316568 14.359907 -6.902844 -17.008728 15.662792 0.000000 0.000000 0.000000 0.785876 -0.049903 0.853240 6.077929 -3.246969 2.443635 -0.993502 -15.555810 5.245288 -5.602920 3.715407 -9.023512 0.000000 0.000000 0.000000 -14.407192 0.797787 0.487741 -36.931908 -11.668575 -1.940444 -123.057452 -64.358587 111.509331 0.000000 0.000000 0.000000 4.007621 -3.751291 -2.311601 34.342523 -21.909395 -8.974062 77.024156 40.449836 28.197404 0.000000 0.000000 0.000000 
-0.037448 0.992187 0.008484 -2.797742 6.928283 0.517248 -1.323199 1.001296 10.932668 -0.349532 -3.520767 50.007704 1.090473 5.823500 8.931385 0.000000 0.000000 0.000000 7.731992 3.378182 -22.298283 0.446349 0.228111 11.122006 -6.558837 -16.425528 16.132422 0.000000 0.000000 0.000000 -0.200782 -0.003472 0.133518 5.342134 -2.842032 2.201031 -0.282175 -12.827349 6.711295 -4.420796 3.143796 -6.834596 0.000000 0.000000 0.000000 -14.636355 1.829562 -0.494480 -34.951091 -8.773005 -2.627460 -112.639695 -61.912936 94.431272 0.000000 0.000000 0.000000 6.210128 -2.428144 -2.203156 37.321115 -21.213753 -9.655573 70.257752 43.860992 28.942426 0.000000 0.000000 0.000000 
-0.040491 0.955192 0.007721 -2.260351 5.297209 -1.104386 0.735224 0.186454 2.562224 -5.340901 -1.201286 73.411114 4.761232 11.070994 5.034986 0.000000 0.000000 0.000000 9.405123 3.175626 -18.743284 1.506607 0.097507 21.145947 -7.034031 -17.440100 5.288975 0.000000 0.000000 0.000000 0.018419 -0.062595 1.531986 4.005714 -2.331739 4.142948 0.503616 -7.180253 7.119224 -4.278073 3.288178 -10.556690 0.000000 0.000000 0.000000 -14.939277 2.281357 -1.594429 -31.297322 -4.677801 -3.075989 -103.371358 -59.215834 78.056338 0.000000 0.000000 0.000000 10.142471 -0.591744 -1.726830 40.210846 -13.715320 -8.095029 60.791554 50.846498 30.849080 0.000000 0.000000 0.000000 
-0.043783 0.927547 -0.000196 -2.446766 3.310500 -3.083127 2.310032 -0.665019 -8.929090 -6.972388 1.360843 88.945941 8.294096 17.171738 1.419539 0.000000 0.000000 0.000000 11.858297 2.281427 -11.913487 0.032863 0.742054 24.820452 -7.209880 -17.835074 -3.823611 0.000000 0.000000 0.000000 -0.708602 -0.180743 4.954426 2.449061 -1.380006 2.816973 2.466714 -0.978978 8.045362 -3.681642 3.350251 -12.085920 0.000000 0.000000 0.000000 -16.811846 2.323354 -2.736909 -28.649491 0.882746 -3.690231 -93.390241 -55.825047 61.999084 0.000000 0.000000 0.000000 11.849838 1.614058 -0.213006 41.542020 -5.381390 -5.973667 59.552969 56.317036 35.921130 0.000000 0.000000 0.000000 
-0.044684 0.935840 -0.007458 -0.868595 1.281459 -2.723593 1.135318 -1.924810 -22.580123 -6.632798 2.710049 89.355395 8.928912 18.522212 5.434358 0.000000 0.000000 0.000000 10.657236 0.522933 -3.472071 -1.475246 1.308240 22.649850 -7.276240 -17.718430 -6.777047 0.000000 0.000000 0.000000 -1.662076 -0.159962 5.818683 -0.108603 0.003431 1.622351 3.600953 4.857837 8.401954 -1.664007 2.508797 -12.980859 0.000000 0.000000 0.000000 -15.058303 3.848550 -4.101347 -26.929298 5.624889 -4.081350 -88.695628 -51.433125 51.353310 0.000000 0.000000 0.000000 11.294628 2.506558 0.928605 43.248821 1.257175 -4.235984 65.183338 62.038712 46.501581 0.000000 0.000000 0.000000 
-0.043393 0.964790 -0.009256 0.920739 -1.502549 -0.996540 -1.178240 -3.046248 -30.488126 -3.633259 1.005620 73.695495 6.750537 14.876179 7.362999 0.000000 0.000000 0.000000 7.268834 -1.085733 5.699578 -2.862982 1.378571 15.598586 -4.894016 -12.096015 -0.173530 0.000000 0.000000 0.000000 -3.408509 -0.023124 4.026175 -2.049450 0.987566 0.076535 4.617141 11.027355 10.018743 2.306318 0.023590 -10.338766 0.000000 0.000000 0.000000 -14.689515 4.723682 -5.275926 -25.503164 11.072113 -4.651384 -85.406534 -46.971718 42.676324 0.000000 0.000000 0.000000 8.815704 1.189238 0.862842 44.848270 3.677115 -3.553256 80.804346 65.947416 65.734100 0.000000 0.000000 0.000000 
-0.041050 0.994661 -0.006195 1.620523 -2.070234 1.166272 -4.611884 -3.881119 -30.506998 0.757313 -1.693922 45.979374 6.443409 14.483278 8.968491 0.000000 0.000000 0.000000 5.219584 -1.648089 10.484265 -3.715454 1.405299 13.284601 -3.676818 -11.947847 11.281730 0.000000 0.000000 0.000000 -4.300398 0.057409 0.857793 -3.268893 1.577095 0.755184 4.594959 12.611222 8.730820 4.280326 -2.011887 -6.271109 0.000000 0.000000 0.000000 -13.472190 5.760885 -5.662814 -23.349199 16.861390 -5.109384 -87.286188 -43.241120 39.791621 0.000000 0.000000 0.000000 6.561761 1.370728 0.939605 47.426970 3.157592 -3.562284 94.697757 66.141915 80.235639 0.000000 0.000000 0.000000 
-0.038193 1.005083 -0.000703 1.266838 -1.753543 2.100728 -5.935773 -3.599645 -26.049910 3.572001 -1.595023 18.863566 2.779113 8.627640 10.419099 0.000000 0.000000 0.000000 4.205717 -1.817368 12.543915 -2.468172 1.586292 19.834139 -4.498322 -14.139615 16.148290 0.000000 0.000000 0.000000 -4.085363 0.074067 -0.785746 -3.220415 1.569902 2.368017 2.882272 13.687913 7.294021 6.202413 -3.499116 -5.729463 0.000000 0.000000 0.000000 -11.188345 5.708106 -5.193715 -23.594921 20.777775 -5.882947 -89.077886 -41.765089 38.760405 0.000000 0.000000 0.000000 7.163930 0.614237 0.770799 45.047945 1.651207 -3.909538 105.834282 63.323619 89.607376 0.000000 0.000000 0.000000 
-0.035086 0.984506 0.006717 0.809764 -1.317507 0.862495 -7.729306 -3.286057 -21.300910 3.966803 -1.201355 11.132423 1.047481 4.810627 7.265778 0.000000 0.000000 0.000000 2.958582 -1.443804 10.973766 1.321092 1.289713 39.713077 -6.674063 -17.716831 16.981926 0.000000 0.000000 0.000000 -3.590995 0.049984 -0.671062 -3.594095 1.788166 4.013129 2.224232 12.902735 6.833439 6.311789 -4.005091 -4.112924 0.000000 0.000000 0.000000 -13.673430 4.913915 -5.545517 -23.433046 20.247789 -5.656491 -87.849640 -43.598629 40.283472 0.000000 0.000000 0.000000 7.821685 0.670614 0.787688 44.023722 0.275728 -4.353616 105.368006 61.248703 86.271536 0.000000 0.000000 0.000000 
-0.032795 0.941756 0.011151 0.584027 0.051831 -1.548996 -10.374536 -3.293927 -18.216688 4.280764 -2.051715 21.214424 2.196729 4.131726 -1.382436 0.000000 0.000000 0.000000 0.275451 -0.594234 5.749664 6.163266 -1.787992 64.952718 -7.200050 -18.546516 18.445786 0.000000 0.000000 0.000000 -4.221433 0.004202 1.390468 -2.859580 1.401164 5.771380 1.622899 8.485704 6.191761 4.963047 -2.634067 -6.623344 0.000000 0.000000 0.000000 -19.229309 4.622104 -6.224010 -21.833993 16.847391 -4.621002 -91.821301 -45.983785 47.259511 0.000000 0.000000 0.000000 9.358924 0.588491 0.414598 42.838084 0.403077 -4.304324 96.392575 57.902913 70.842434 0.000000 0.000000 0.000000 
-0.034012 0.906688 0.006919 0.029549 1.049202 -3.629137 -11.549495 -2.227732 -11.512314 4.458813 -2.666979 27.126782 4.470875 5.636563 -11.124108 0.000000 0.000000 0.000000 -1.545053 0.442612 -4.926549 7.865280 -4.932829 85.276361 -7.058209 -18.328479 18.694448 0.000000 0.000000 0.000000 -3.858695 -0.064298 5.747464 -1.689018 0.760703 4.796487 -0.637096 5.226157 6.665496 5.200501 -2.685247 -8.321038 0.000000 0.000000 0.000000 -24.178200 0.290751 -4.350407 -21.555661 9.188967 -3.477428 -94.847245 -53.137977 58.458074 0.000000 0.000000 0.000000 14.433525 0.055739 -0.164240 39.633838 -3.066709 -5.214488 86.222206 53.488922 55.228279 0.000000 0.000000 0.000000 
-0.037929 0.909743 0.000621 -1.252633 3.697925 -3.788379 -10.086310 -0.302509 -1.889378 6.096202 -3.169740 24.456012 4.823875 4.705865 -13.819071 0.000000 0.000000 0.000000 -1.376046 1.553677 -18.440434 8.878510 -9.128787 92.755548 -8.349788 -20.376814 14.915262 0.000000 0.000000 0.000000 -2.014460 -0.220335 8.042053 -0.664582 0.252623 2.230202 -2.638783 -1.550150 9.083413 3.593916 -1.885173 -9.020471 0.000000 0.000000 0.000000 -24.965969 -0.918845 -2.014375 -24.412387 -0.550800 -2.904135 -100.886442 -61.149236 74.646715 0.000000 0.000000 0.000000 14.734442 -0.266753 -1.219483 39.436036 -8.296426 -6.627459 78.202223 48.515335 41.959810 0.000000 0.000000 0.000000 
-0.041764 0.938564 -0.000969 -3.992600 5.966809 -1.325980 -4.354567 0.872276 6.707540 7.014455 -2.461669 15.717904 2.734206 2.469967 -6.676442 0.000000 0.000000 0.000000 1.416542 2.876232 -28.958293 10.138603 -10.587360 82.122116 -9.520839 -22.296791 12.230111 0.000000 0.000000 0.000000 0.454505 -0.273825 5.672268 2.333592 -1.268409 1.854673 -4.785850 -6.727178 8.732827 1.179036 -0.607699 -6.629728 0.000000 0.000000 0.000000 -23.227721 -1.224880 -0.548959 -28.984924 -6.530660 -2.554606 -113.363119 -61.774226 90.540392 0.000000 0.000000 0.000000 13.139875 -0.973984 -2.040916 37.483666 -14.475283 -7.731334 76.258626 42.888429 34.009051 0.000000 0.000000 0.000000 
-0.043588 0.974737 0.001421 -5.464198 7.514699 1.478868 0.423137 0.840874 12.130099 6.115172 -1.802851 11.876375 -1.949773 -0.067484 6.940601 0.000000 0.000000 0.000000 3.927917 3.757541 -33.095690 8.632630 -6.186813 58.455609 -9.730141 -22.396124 11.276625 0.000000 0.000000 0.000000 2.543084 -0.242585 3.077459 2.792531 -1.547673 2.332242 -4.021682 -10.320358 6.912937 -1.769658 1.394562 -5.455003 0.000000 0.000000 0.000000 -21.275835 -2.139449 0.881763 -31.837268 -9.669729 -2.182659 -126.253165 -60.278238 106.476000 0.000000 0.000000 0.000000 9.258250 -3.065421 -2.780368 37.008032 -20.273095 -9.101589 78.393127 37.334363 28.837907 0.000000 0.000000 0.000000 
-0.043596 0.996797 0.005720 -4.717863 8.998979 2.969572 2.127510 0.508855 11.030044 4.332470 -2.771133 23.908629 -2.021676 1.548740 10.444012 0.000000 0.000000 0.000000 5.736693 3.758874 -29.823722 4.742084 -1.720782 32.409248 -7.447057 -17.976026 9.680233 0.000000 0.000000 0.000000 1.262845 -0.141392 2.143250 4.996594 -2.652645 2.052918 -4.053866 -11.708407 6.538031 -3.951941 2.998429 -5.436291 0.000000 0.000000 0.000000 -21.538722 -0.755005 0.268547 -32.868263 -10.618193 -2.040524 -124.048473 -55.864116 99.121144 0.000000 0.000000 0.000000 6.762668 -2.730208 -2.221933 38.481092 -20.513788 -9.658829 78.057975 37.230530 28.306479 0.000000 0.000000 0.000000 
